<svg width="76" height="76" viewBox="0 0 76 76" fill="none" xmlns="http://www.w3.org/2000/svg">
<circle cx="38" cy="38" r="38" fill="#F3F3F3"/>
<path d="M35 28.2927H41C41 27.4906 40.6839 26.7213 40.1213 26.1541C39.5587 25.5869 38.7956 25.2683 38 25.2683C37.2044 25.2683 36.4413 25.5869 35.8787 26.1541C35.3161 26.7213 35 27.4906 35 28.2927ZM32.75 28.2927C32.75 27.5976 32.8858 26.9094 33.1496 26.2673C33.4135 25.6251 33.8002 25.0417 34.2877 24.5502C34.7752 24.0587 35.354 23.6689 35.9909 23.4029C36.6279 23.1369 37.3106 23 38 23C38.6894 23 39.3721 23.1369 40.0091 23.4029C40.646 23.6689 41.2248 24.0587 41.7123 24.5502C42.1998 25.0417 42.5865 25.6251 42.8504 26.2673C43.1142 26.9094 43.25 27.5976 43.25 28.2927H51.875C52.1734 28.2927 52.4595 28.4122 52.6705 28.6249C52.8815 28.8376 53 29.126 53 29.4268C53 29.7276 52.8815 30.0161 52.6705 30.2288C52.4595 30.4415 52.1734 30.561 51.875 30.561H49.895L48.14 48.8752C48.0054 50.2785 47.3571 51.5809 46.3215 52.5284C45.286 53.4759 43.9375 54.0005 42.539 54H33.461C32.0628 54.0002 30.7147 53.4753 29.6794 52.5279C28.6442 51.5804 27.9961 50.2782 27.8615 48.8752L26.105 30.561H24.125C23.8266 30.561 23.5405 30.4415 23.3295 30.2288C23.1185 30.0161 23 29.7276 23 29.4268C23 29.126 23.1185 28.8376 23.3295 28.6249C23.5405 28.4122 23.8266 28.2927 24.125 28.2927H32.75ZM35.75 35.4756C35.75 35.1748 35.6315 34.8863 35.4205 34.6736C35.2095 34.461 34.9234 34.3415 34.625 34.3415C34.3266 34.3415 34.0405 34.461 33.8295 34.6736C33.6185 34.8863 33.5 35.1748 33.5 35.4756V46.8171C33.5 47.1179 33.6185 47.4063 33.8295 47.619C34.0405 47.8317 34.3266 47.9512 34.625 47.9512C34.9234 47.9512 35.2095 47.8317 35.4205 47.619C35.6315 47.4063 35.75 47.1179 35.75 46.8171V35.4756ZM41.375 34.3415C41.6734 34.3415 41.9595 34.461 42.1705 34.6736C42.3815 34.8863 42.5 35.1748 42.5 35.4756V46.8171C42.5 47.1179 42.3815 47.4063 42.1705 47.619C41.9595 47.8317 41.6734 47.9512 41.375 47.9512C41.0766 47.9512 40.7905 47.8317 40.5795 47.619C40.3685 47.4063 40.25 47.1179 40.25 46.8171V35.4756C40.25 35.1748 40.3685 34.8863 40.5795 34.6736C40.7905 34.461 41.0766 34.3415 41.375 34.3415ZM30.101 48.6574C30.1819 49.4992 30.5709 50.2804 31.1921 50.8487C31.8132 51.4171 32.6221 51.7319 33.461 51.7317H42.539C43.3779 51.7319 44.1868 51.4171 44.8079 50.8487C45.4291 50.2804 45.8181 49.4992 45.899 48.6574L47.636 30.561H28.364L30.101 48.6574Z" fill="black"/>
</svg>
